<mxfile host="app.diagrams.net" modified="2021-12-09T09:41:52.965Z" agent="5.0 (Windows NT 10.0; Win64; x64) AppleWebKit/537.36 (KHTML, like Gecko) Chrome/96.0.4664.45 Safari/537.36" etag="TvX8yHAOzd3aW4Sbgqab" version="15.3.5" type="github">
  <diagram id="i3flGWlADwd0WerrgBt4" name="第 1 页">
    <mxGraphModel dx="782" dy="436" grid="1" gridSize="10" guides="1" tooltips="1" connect="1" arrows="1" fold="1" page="1" pageScale="1" pageWidth="827" pageHeight="1169" math="0" shadow="0">
      <root>
        <mxCell id="0" />
        <mxCell id="1" parent="0" />
        <mxCell id="p8xZ4yX1uvpRLc3oljL4-3" value="" style="edgeStyle=none;curved=1;rounded=0;orthogonalLoop=1;jettySize=auto;html=1;endArrow=open;startSize=14;endSize=14;sourcePerimeterSpacing=8;targetPerimeterSpacing=8;" edge="1" parent="1" source="p8xZ4yX1uvpRLc3oljL4-1" target="p8xZ4yX1uvpRLc3oljL4-2">
          <mxGeometry relative="1" as="geometry" />
        </mxCell>
        <mxCell id="p8xZ4yX1uvpRLc3oljL4-5" value="SR，工单" style="edgeStyle=none;curved=1;rounded=0;orthogonalLoop=1;jettySize=auto;html=1;endArrow=open;startSize=14;endSize=14;sourcePerimeterSpacing=8;targetPerimeterSpacing=8;startArrow=open;startFill=0;" edge="1" parent="1" source="p8xZ4yX1uvpRLc3oljL4-1" target="p8xZ4yX1uvpRLc3oljL4-4">
          <mxGeometry relative="1" as="geometry" />
        </mxCell>
        <mxCell id="p8xZ4yX1uvpRLc3oljL4-1" value="galileo_perspect" style="rounded=1;whiteSpace=wrap;html=1;hachureGap=4;pointerEvents=0;" vertex="1" parent="1">
          <mxGeometry x="350" y="200" width="120" height="60" as="geometry" />
        </mxCell>
        <mxCell id="p8xZ4yX1uvpRLc3oljL4-2" value="report,excel" style="rounded=1;whiteSpace=wrap;html=1;hachureGap=4;pointerEvents=0;" vertex="1" parent="1">
          <mxGeometry x="350" y="340" width="120" height="60" as="geometry" />
        </mxCell>
        <mxCell id="p8xZ4yX1uvpRLc3oljL4-4" value="EAM, Maximo" style="rounded=1;whiteSpace=wrap;html=1;hachureGap=4;pointerEvents=0;" vertex="1" parent="1">
          <mxGeometry x="350" y="60" width="120" height="60" as="geometry" />
        </mxCell>
      </root>
    </mxGraphModel>
  </diagram>
</mxfile>
